<svg width="41" height="40" viewBox="0 0 41 40" fill="none" xmlns="http://www.w3.org/2000/svg">
<g clip-path="url(#clip0_2311_33)">
<g clip-path="url(#clip1_2311_33)">
<path fill-rule="evenodd" clip-rule="evenodd" d="M20.5 40C31.5457 40 40.5 31.0457 40.5 20C40.5 8.9543 31.5457 0 20.5 0C9.4543 0 0.5 8.9543 0.5 20C0.5 31.0457 9.4543 40 20.5 40ZM13.9488 13.4492C15.6864 11.7116 18.0422 10.7343 20.4995 10.7317C22.9568 10.7343 25.3127 11.7116 27.0503 13.4492C28.7878 15.1868 29.7652 17.5427 29.7678 20V21.5447C29.7612 22.2243 29.5307 22.8828 29.1119 23.4181C28.6932 23.9534 28.1096 24.3358 27.4515 24.5058C26.7935 24.6759 26.0977 24.6242 25.472 24.3587C24.8463 24.0933 24.3256 23.629 23.9906 23.0376C23.3677 23.7406 22.5464 24.2383 21.635 24.4651C20.7236 24.692 19.7648 24.6374 18.885 24.3085C18.0053 23.9796 17.2458 23.3918 16.7068 22.6227C16.1677 21.8536 15.8744 20.9391 15.8654 20C16.0592 13.8767 24.939 13.8759 25.1337 20V21.5447C25.1337 21.9543 25.2964 22.3473 25.5861 22.6369C25.8758 22.9266 26.2687 23.0894 26.6784 23.0894C27.0881 23.0894 27.481 22.9266 27.7707 22.6369C28.0604 22.3473 28.2231 21.9543 28.2231 21.5447V20C27.8006 9.75617 13.2 9.75385 12.776 20C12.6987 26.1618 19.9589 29.9294 24.939 26.3202C25.0217 26.2584 25.116 26.2139 25.2162 26.1892C25.3163 26.1645 25.4205 26.1601 25.5224 26.1763C25.6243 26.1925 25.7219 26.229 25.8095 26.2836C25.8971 26.3382 25.9728 26.4097 26.0323 26.4941C26.0917 26.5784 26.1337 26.6738 26.1557 26.7746C26.1777 26.8754 26.1792 26.9796 26.1602 27.0811C26.1413 27.1825 26.1022 27.2791 26.0452 27.3652C25.9883 27.4512 25.9147 27.525 25.8288 27.5822C19.85 31.9167 11.1339 27.3937 11.2312 20C11.2339 17.5427 12.2112 15.1868 13.9488 13.4492ZM18.315 22.1845C18.8944 22.7639 19.6802 23.0894 20.4995 23.0894C21.3189 23.0894 22.1047 22.7639 22.6841 22.1845C23.2635 21.6051 23.589 20.8193 23.589 20C23.589 19.1806 23.2635 18.3948 22.6841 17.8154C22.1047 17.236 21.3189 16.9105 20.4995 16.9105C19.6802 16.9105 18.8944 17.236 18.315 17.8154C17.7356 18.3948 17.4101 19.1806 17.4101 20C17.4101 20.8193 17.7356 21.6051 18.315 22.1845Z" fill="#C3936C"/>
</g>
</g>
<defs>
<clipPath id="clip0_2311_33">
<rect width="40" height="40" fill="white" transform="translate(0.5)"/>
</clipPath>
<clipPath id="clip1_2311_33">
<rect width="40" height="40" fill="white" transform="translate(0.5)"/>
</clipPath>
</defs>
</svg>
