<svg width="41" height="40" viewBox="0 0 41 40" fill="none" xmlns="http://www.w3.org/2000/svg">
<g clip-path="url(#clip0_2311_245)">
<g clip-path="url(#clip1_2311_245)">
<path fill-rule="evenodd" clip-rule="evenodd" d="M20.5 40C31.5457 40 40.5 31.0457 40.5 20C40.5 8.9543 31.5457 0 20.5 0C9.4543 0 0.5 8.9543 0.5 20C0.5 31.0457 9.4543 40 20.5 40ZM20.4999 10.7317C17.9823 10.7317 17.6672 10.7418 16.6789 10.7873C15.6931 10.8328 15.0182 10.9895 14.4284 11.2178C13.8103 11.4507 13.2505 11.8156 12.7879 12.287C12.3161 12.7499 11.951 13.31 11.7178 13.9284C11.4895 14.5182 11.3319 15.1922 11.2873 16.1797C11.2426 17.1672 11.2317 17.4823 11.2317 19.9999C11.2317 22.5167 11.2418 22.8318 11.2873 23.8219C11.3328 24.8077 11.4895 25.4817 11.7178 26.0715C11.9506 26.6899 12.3155 27.25 12.787 27.7129C13.2503 28.1841 13.8107 28.5487 14.4292 28.7812C15.019 29.0104 15.6931 29.168 16.6789 29.2126C17.6672 29.2573 17.9823 29.2682 20.4999 29.2682C23.0176 29.2682 23.3327 29.2581 24.3219 29.2126C25.3077 29.1671 25.9817 29.0104 26.5715 28.7812C27.1891 28.5487 27.7494 28.1847 28.2128 27.7129C28.6841 27.2496 29.0487 26.6892 29.2812 26.0707C29.5104 25.4809 29.668 24.8068 29.7126 23.821C29.7573 22.8327 29.7682 22.5176 29.7682 19.9999C29.7682 17.4832 29.7581 17.1681 29.7126 16.178C29.6671 15.1922 29.5104 14.5182 29.2812 13.9284C29.0487 13.3099 28.6847 12.7505 28.2128 12.2879C27.7494 11.816 27.1891 11.4512 26.5715 11.2178C25.9817 10.9895 25.3077 10.8319 24.3202 10.7873C23.3327 10.7426 23.0176 10.7317 20.4999 10.7317ZM20.4999 12.4016C22.9746 12.4016 23.2678 12.4109 24.2452 12.4556C25.1493 12.4968 25.6396 12.6477 25.9666 12.7749C26.3691 12.9234 26.7332 13.16 27.0324 13.4675C27.3568 13.7919 27.5565 14.1011 27.725 14.5333C27.8522 14.8603 28.003 15.3506 28.0443 16.2547C28.089 17.2321 28.0983 17.5253 28.0983 19.9999C28.0983 22.4746 28.089 22.7678 28.0443 23.7452C28.003 24.6493 27.8522 25.1396 27.725 25.4666C27.5767 25.8685 27.3399 26.2333 27.0324 26.5324C26.708 26.8568 26.3988 27.0565 25.9666 27.225C25.6396 27.3522 25.1493 27.5031 24.2452 27.5443C23.2678 27.589 22.9754 27.5983 20.4999 27.5983C18.0245 27.5983 17.7321 27.589 16.7547 27.5443C15.8506 27.5031 15.3603 27.3522 15.0333 27.225C14.6314 27.0767 14.2666 26.8399 13.9675 26.5324C13.6599 26.2333 13.4232 25.8685 13.2749 25.4666C13.1477 25.1396 12.9968 24.6493 12.9556 23.7452C12.9109 22.7678 12.9016 22.4746 12.9016 19.9999C12.9016 17.5253 12.9109 17.2321 12.9556 16.2547C12.9968 15.3506 13.1477 14.8603 13.2749 14.5333C13.4233 14.1308 13.66 13.7666 13.9675 13.4675C14.2919 13.1431 14.6011 12.9434 15.0333 12.7749C15.3603 12.6477 15.8506 12.4968 16.7547 12.4556C17.7321 12.4109 18.0253 12.4016 20.4999 12.4016ZM21.3989 22.9622C20.7134 23.1695 19.9773 23.1323 19.3161 22.8571C18.8939 22.682 18.5157 22.4155 18.2088 22.0767C17.9019 21.7378 17.6739 21.3352 17.5413 20.8977C17.4087 20.4602 17.3747 19.9988 17.4418 19.5466C17.509 19.0944 17.6755 18.6628 17.9295 18.2827C18.1835 17.9026 18.5186 17.5835 18.9107 17.3485C19.3028 17.1134 19.7421 16.9683 20.197 16.9234C20.652 16.8785 21.1112 16.9351 21.5416 17.089C21.9721 17.2429 22.3631 17.4903 22.6864 17.8135C23.1937 18.319 23.5096 18.9849 23.5804 19.6976C23.6512 20.4102 23.4724 21.1253 23.0745 21.7207C22.6766 22.3161 22.0844 22.7549 21.3989 22.9622ZM18.6769 15.5987C18.0989 15.8381 17.5737 16.189 17.1313 16.6313C16.2379 17.5248 15.736 18.7365 15.736 19.9999C15.736 21.2634 16.2379 22.4751 17.1313 23.3685C18.0247 24.262 19.2365 24.7639 20.4999 24.7639C21.7634 24.7639 22.9751 24.262 23.8685 23.3685C24.3109 22.9262 24.6618 22.401 24.9012 21.823C25.1406 21.245 25.2639 20.6256 25.2639 19.9999C25.2639 19.3743 25.1406 18.7549 24.9012 18.1769C24.6618 17.5989 24.3109 17.0737 23.8685 16.6313C23.4262 16.189 22.901 15.8381 22.323 15.5987C21.745 15.3592 21.1256 15.236 20.4999 15.236C19.8743 15.236 19.2549 15.3592 18.6769 15.5987ZM26.5785 15.5798C26.5178 15.7177 26.4301 15.8421 26.3204 15.9455C26.1072 16.1466 25.8241 16.2567 25.531 16.2524C25.2379 16.2482 24.9581 16.1299 24.7509 15.9226C24.5436 15.7154 24.4253 15.4355 24.421 15.1425C24.4168 14.8494 24.5269 14.5662 24.728 14.353C24.8314 14.2434 24.9557 14.1556 25.0937 14.0949C25.2316 14.0342 25.3803 14.0018 25.531 13.9996C25.6817 13.9974 25.8313 14.0255 25.9709 14.0822C26.1106 14.1388 26.2374 14.2229 26.344 14.3295C26.4506 14.436 26.5347 14.5629 26.5913 14.7025C26.648 14.8422 26.676 14.9918 26.6738 15.1425C26.6716 15.2931 26.6392 15.4419 26.5785 15.5798Z" fill="white"/>
</g>
</g>
<defs>
<clipPath id="clip0_2311_245">
<rect width="40" height="40" fill="white" transform="translate(0.5)"/>
</clipPath>
<clipPath id="clip1_2311_245">
<rect width="40" height="40" fill="white" transform="translate(0.5)"/>
</clipPath>
</defs>
</svg>
