<svg width="41" height="40" viewBox="0 0 41 40" fill="none" xmlns="http://www.w3.org/2000/svg">
<g clip-path="url(#clip0_2311_232)">
<g clip-path="url(#clip1_2311_232)">
<path fill-rule="evenodd" clip-rule="evenodd" d="M20.5 40C31.5457 40 40.5 31.0457 40.5 20C40.5 8.9543 31.5457 0 20.5 0C9.4543 0 0.5 8.9543 0.5 20C0.5 31.0457 9.4543 40 20.5 40ZM16.0507 29.2641C21.9409 29.2641 29.7611 21.4517 29.7611 15.5538V15.546C29.7611 14.2568 29.2747 13.0525 28.3483 12.1339L27.5378 11.4314C26.6037 10.4973 25.0906 10.4973 24.1565 11.4314C24.1333 11.4545 22.7052 13.315 22.7052 13.315C21.8174 14.2337 21.8174 15.7004 22.7052 16.6191L23.6006 17.7462C22.4736 20.3015 20.7212 22.0616 18.2508 23.1115L17.1237 22.2082C16.2051 21.3282 14.746 21.3282 13.8196 22.2082C13.8196 22.2082 11.9592 23.6364 11.936 23.6596C11.0019 24.5937 11.0019 26.1067 11.8974 27.0022L12.6694 27.89C13.5572 28.7778 14.7615 29.2641 16.0507 29.2641Z" fill="white"/>
</g>
</g>
<defs>
<clipPath id="clip0_2311_232">
<rect width="40" height="40" fill="white" transform="translate(0.5)"/>
</clipPath>
<clipPath id="clip1_2311_232">
<rect width="40" height="40" fill="white" transform="translate(0.5)"/>
</clipPath>
</defs>
</svg>
