<svg xmlns="http://www.w3.org/2000/svg" width="40" height="40" viewBox="0 0 40 40" fill="none"><path fill-rule="evenodd" clip-rule="evenodd" d="M20 40C31.0457 40 40 31.0457 40 20C40 8.9543 31.0457 0 20 0C8.9543 0 0 8.9543 0 20C0 31.0457 8.9543 40 20 40ZM19.9999 10.7317C17.4823 10.7317 17.1672 10.7418 16.1789 10.7873H16.178C15.1922 10.8328 14.5182 10.9895 13.9284 11.2178C13.3103 11.4507 12.7505 11.8156 12.2879 12.287C11.8161 12.7499 11.451 13.31 11.2178 13.9284C10.9895 14.5182 10.8319 15.1922 10.7873 16.1797C10.7426 17.1672 10.7317 17.4823 10.7317 19.9999C10.7317 22.5167 10.7418 22.8318 10.7873 23.8219C10.8328 24.8077 10.9895 25.4817 11.2178 26.0715C11.4506 26.6899 11.8155 27.25 12.287 27.7129C12.7503 28.1841 13.3107 28.5487 13.9292 28.7812C14.519 29.0104 15.1931 29.168 16.1789 29.2126C17.1672 29.2573 17.4823 29.2682 19.9999 29.2682C22.5176 29.2682 22.8327 29.2581 23.8219 29.2126C24.8077 29.1671 25.4817 29.0104 26.0715 28.7812C26.6891 28.5487 27.2494 28.1847 27.7128 27.7129C28.1841 27.2496 28.5487 26.6892 28.7812 26.0707C29.0104 25.4809 29.168 24.8068 29.2126 23.821C29.2573 22.8327 29.2682 22.5176 29.2682 19.9999C29.2682 17.4832 29.2581 17.1681 29.2126 16.178C29.1671 15.1922 29.0104 14.5182 28.7812 13.9284C28.5487 13.3099 28.1847 12.7505 27.7128 12.2879C27.2494 11.816 26.6891 11.4512 26.0715 11.2178C25.4817 10.9895 24.8077 10.8319 23.8202 10.7873C22.8327 10.7426 22.5176 10.7317 19.9999 10.7317ZM19.9999 12.4016C22.4746 12.4016 22.7678 12.4109 23.7452 12.4556C24.6493 12.4968 25.1396 12.6477 25.4666 12.7749C25.8691 12.9234 26.2332 13.16 26.5324 13.4675C26.8568 13.7919 27.0565 14.1011 27.225 14.5333C27.3522 14.8603 27.503 15.3506 27.5443 16.2547C27.589 17.2321 27.5983 17.5253 27.5983 19.9999C27.5983 22.4746 27.589 22.7678 27.5443 23.7452C27.503 24.6493 27.3522 25.1396 27.225 25.4666C27.0767 25.8685 26.8399 26.2333 26.5324 26.5324C26.208 26.8568 25.8988 27.0565 25.4666 27.225C25.1396 27.3522 24.6493 27.5031 23.7452 27.5443C22.7678 27.589 22.4754 27.5983 19.9999 27.5983C17.5245 27.5983 17.2321 27.589 16.2547 27.5443C15.3506 27.5031 14.8603 27.3522 14.5333 27.225C14.1314 27.0767 13.7666 26.8399 13.4675 26.5324C13.1599 26.2333 12.9232 25.8685 12.7749 25.4666C12.6477 25.1396 12.4968 24.6493 12.4556 23.7452C12.4109 22.7678 12.4016 22.4746 12.4016 19.9999C12.4016 17.5253 12.4109 17.2321 12.4556 16.2547C12.4968 15.3506 12.6477 14.8603 12.7749 14.5333C12.9233 14.1308 13.16 13.7666 13.4675 13.4675C13.7919 13.1431 14.1011 12.9434 14.5333 12.7749C14.8603 12.6477 15.3506 12.4968 16.2547 12.4556C17.2321 12.4109 17.5253 12.4016 19.9999 12.4016ZM20.8989 22.9622C20.2134 23.1695 19.4773 23.1323 18.8161 22.8571C18.3939 22.682 18.0157 22.4155 17.7088 22.0767C17.4019 21.7378 17.1739 21.3352 17.0413 20.8977C16.9087 20.4602 16.8747 19.9988 16.9418 19.5466C17.009 19.0944 17.1755 18.6628 17.4295 18.2827C17.6835 17.9026 18.0186 17.5835 18.4107 17.3485C18.8028 17.1134 19.2421 16.9683 19.697 16.9234C20.152 16.8785 20.6112 16.9351 21.0416 17.089C21.4721 17.2429 21.8631 17.4903 22.1864 17.8135C22.6937 18.319 23.0096 18.9849 23.0804 19.6976C23.1512 20.4102 22.9724 21.1253 22.5745 21.7207C22.1766 22.3161 21.5844 22.7549 20.8989 22.9622ZM18.1769 15.5987C17.5989 15.8381 17.0737 16.189 16.6313 16.6313C15.7379 17.5248 15.236 18.7365 15.236 19.9999C15.236 21.2634 15.7379 22.4751 16.6313 23.3685C17.5247 24.262 18.7365 24.7639 19.9999 24.7639C21.2634 24.7639 22.4751 24.262 23.3685 23.3685C23.8109 22.9262 24.1618 22.401 24.4012 21.823C24.6406 21.245 24.7639 20.6256 24.7639 19.9999C24.7639 19.3743 24.6406 18.7549 24.4012 18.1769C24.1618 17.5989 23.8109 17.0737 23.3685 16.6313C22.9262 16.189 22.401 15.8381 21.823 15.5987C21.245 15.3592 20.6256 15.236 19.9999 15.236C19.3743 15.236 18.7549 15.3592 18.1769 15.5987ZM26.0785 15.5798C26.0178 15.7177 25.9301 15.8421 25.8204 15.9455C25.6072 16.1466 25.3241 16.2567 25.031 16.2524C24.7379 16.2482 24.4581 16.1299 24.2509 15.9226C24.0436 15.7154 23.9253 15.4355 23.921 15.1425C23.9168 14.8494 24.0269 14.5662 24.228 14.353C24.3314 14.2434 24.4557 14.1556 24.5937 14.0949C24.7316 14.0342 24.8803 14.0018 25.031 13.9996C25.1817 13.9974 25.3313 14.0255 25.4709 14.0822C25.6106 14.1388 25.7374 14.2229 25.844 14.3295C25.9506 14.436 26.0347 14.5629 26.0913 14.7025C26.148 14.8422 26.176 14.9918 26.1738 15.1425C26.1716 15.2931 26.1392 15.4419 26.0785 15.5798Z" fill="#C3936C"/></svg>